<?xml version="1.0" encoding="UTF-8" standalone="no"?>
<!-- Created with Inkscape (http://www.inkscape.org/) -->

<svg
   xmlns:dc="http://purl.org/dc/elements/1.1/"
   xmlns:cc="http://creativecommons.org/ns#"
   xmlns:rdf="http://www.w3.org/1999/02/22-rdf-syntax-ns#"
   xmlns:svg="http://www.w3.org/2000/svg"
   xmlns="http://www.w3.org/2000/svg"
   xmlns:xlink="http://www.w3.org/1999/xlink"
   xmlns:sodipodi="http://sodipodi.sourceforge.net/DTD/sodipodi-0.dtd"
   xmlns:inkscape="http://www.inkscape.org/namespaces/inkscape"
   width="640px"
   height="480px"
   id="svg3807"
   version="1.1"
   inkscape:version="0.48.1 r9760"
   sodipodi:docname="Nouveau document 4">
  <defs
     id="defs3809">
    <linearGradient
       id="linearGradient4344">
      <stop
         style="stop-color:#909dec;stop-opacity:1;"
         offset="0"
         id="stop4346" />
      <stop
         style="stop-color:#c6ddec;stop-opacity:1;"
         offset="1"
         id="stop4348" />
    </linearGradient>
    <linearGradient
       inkscape:collect="always"
       xlink:href="#linearGradient4344"
       id="linearGradient4350"
       x1="329.14893"
       y1="4.3475199"
       x2="329.14893"
       y2="337.37878"
       gradientUnits="userSpaceOnUse"
       gradientTransform="matrix(2.6224899,0,0,1,-519.3809,0)" />
  </defs>
  <sodipodi:namedview
     id="base"
     pagecolor="#ffffff"
     bordercolor="#666666"
     borderopacity="1.0"
     inkscape:pageopacity="0.0"
     inkscape:pageshadow="2"
     inkscape:zoom="0.38736264"
     inkscape:cx="801.12056"
     inkscape:cy="350.59193"
     inkscape:current-layer="layer1"
     inkscape:document-units="px"
     showgrid="false"
     inkscape:window-width="974"
     inkscape:window-height="576"
     inkscape:window-x="50"
     inkscape:window-y="24"
     inkscape:window-maximized="1" />
  <metadata
     id="metadata3812">
    <rdf:RDF>
      <cc:Work
         rdf:about="">
        <dc:format>image/svg+xml</dc:format>
        <dc:type
           rdf:resource="http://purl.org/dc/dcmitype/StillImage" />
        <dc:title></dc:title>
      </cc:Work>
    </rdf:RDF>
  </metadata>
  <g
     id="layer1"
     inkscape:label="Layer 1"
     inkscape:groupmode="layer">
    <rect
       style="fill:url(#linearGradient4350);fill-opacity:1;stroke:none"
       id="rect3834"
       width="1685.7589"
       height="481.461"
       x="-522.76599"
       y="-0.1702157"
       ry="0"
       inkscape:export-filename="/home/uxhi/INSA/git/filrouge-tmb/jeu/final/fond.png"
       inkscape:export-xdpi="191.41737"
       inkscape:export-ydpi="191.41737" />
    <path
       style="fill:#ffffff;fill-opacity:1;stroke:none"
       d="M 85.191488,51.460991 C 71.7944,47.082862 67.548395,60.315915 57.651607,65.412085 c -12.881901,2.93539 -26.59379,3.46589 -39.9708,4.00149 -13.4862629,-0.58772 -24.5356565,7.29838 -36.714438,10.40333 -12.347251,4.9747 -27.155759,0.89291 -38.415896,9.09786 -6.052378,6.40643 -3.592246,14.225885 5.471365,10.36033 13.46949,-1.32298 28.92659,-4.50019 40.361141,5.107875 9.0270621,8.2393 25.414486,6.20843 37.033581,5.17629 12.839534,3.52602 24.544296,11.39532 38.414609,9.11959 14.53505,-0.69734 29.650119,-3.47038 43.467311,3.66664 12.1405,1.28614 22.7925,-4.36604 34.66522,-4.57824 13.01478,-3.80347 26.28517,-5.76885 40.0363,-6.28499 12.82077,-0.16821 26.12639,0.36828 39.228,0.64541 10.6603,0.0255 21.40886,-2.65116 31.13123,-6.49123 16.66962,0.43805 20.11815,-20.631625 36.73309,-19.128025 12.99265,-6.73881 -10.0458,-12.69177 -16.5565,-10.98401 -11.72911,-6.23538 -25.28123,-7.42051 -38.33062,-7.82913 -13.40274,3.41306 -27.29203,2.45275 -39.7685,-3.83842 -9.90235,-14.021133 -28.17568,-9.282868 -43.27576,-9.53263 -10.24297,-3.516679 -21.10265,-10.328072 -32.51367,-8.429186 -11.0624,5.696849 -25.121992,-5.93198 -33.455782,5.565952 z"
       id="path4368"
       inkscape:connector-curvature="0"
       inkscape:export-filename="/home/uxhi/INSA/git/filrouge-tmb/jeu/final/fond.png"
       inkscape:export-xdpi="191.41737"
       inkscape:export-ydpi="191.41737" />
    <path
       style="fill:#ffffff;stroke:none;stroke-width:1px;stroke-linecap:butt;stroke-linejoin:miter;stroke-opacity:1;fill-opacity:1"
       d="m 578.26951,145.68794 c -10.25047,-0.35851 1.92401,-2.24236 -1.68093,-0.40015 -10.03875,-0.87092 -19.60168,-4.87976 -29.56882,-4.77341 -11.17704,-1.97236 -22.50903,3.59586 -32.67539,-0.51173 -11.65612,-5.9182 -26.09357,-2.57459 -37.99435,1.67792 -16.9646,7.06088 -35.70656,4.95581 -53.67041,5.29646 -11.24648,-1.3833 -18.09134,10.58295 -29.70058,9.03952 -10.06792,0.51376 -19.41215,8.11961 -29.89821,7.56045 -11.02612,1.73304 -21.30762,7.23449 -32.85721,5.48543 -8.38809,-1.8275 -20.00811,10.2431 -5.75371,10.18862 11.2617,0.85311 23.33971,-2.42088 33.4796,3.16346 11.16121,4.06356 21.13936,4.89839 32.00178,8.57985 11.06704,-3.67493 16.40031,14.16894 29.1115,10.45587 11.00455,-1.1259 21.97975,-2.79797 33.01052,-2.79692 10.00706,0.38301 18.55513,7.68476 27.91121,11.94372 9.47242,6.03346 24.33949,1.18121 35.00035,-2.08507 15.12855,-2.47435 29.25481,1.87933 43.6461,-3.13895 14.13623,0.21535 28.58382,-2.28795 41.51017,2.54449 9.2624,-5.89407 18.16149,-15.77365 30.38911,-13.02862 10.79578,-3.83584 30.8214,-1.92468 33.14912,-15.83477 1.52352,-8.9253 -5.98492,-11.74017 -11.99467,-11.78088 -7.29917,-6.68905 -23.78286,1.15616 -28.64779,-9.01166 -5.43645,-11.20082 -22.12366,5.30012 -28.12594,-9.24657 -7.1902,1.07185 -9.77538,-2.46334 -16.64145,-3.32706 z"
       id="path4372"
       inkscape:connector-curvature="0"
       inkscape:export-filename="/home/uxhi/INSA/git/filrouge-tmb/jeu/final/fond.png"
       inkscape:export-xdpi="191.41737"
       inkscape:export-ydpi="191.41737" />
    <path
       style="fill:#ffffff;fill-opacity:1;stroke:none"
       d="m 164.18841,218.38846 c 7.04576,-0.24643 -1.32249,-1.54131 1.1554,-0.27505 6.90023,-0.59863 13.4734,-3.35415 20.32442,-3.28105 7.68265,-1.35573 15.4718,2.47164 22.45975,-0.35175 8.01194,-4.06793 17.93566,-1.76966 26.11578,1.15334 11.66078,4.85337 24.54325,3.40642 36.89088,3.64057 7.73038,-0.95082 12.43526,7.2743 20.41498,6.2134 6.92029,0.35314 13.34313,5.5811 20.55084,5.19676 7.57891,1.19122 14.64599,4.97269 22.58471,3.77046 5.76564,-1.25615 13.75278,7.0407 3.95488,7.00324 -7.74085,0.5864 -16.04279,-1.66401 -23.01254,2.17444 -7.67177,2.79313 -14.53034,3.36695 -21.99673,5.89745 -7.60704,-2.52601 -11.27291,9.73915 -20.01007,7.18694 -7.56409,-0.7739 -15.108,-1.92321 -22.6901,-1.92249 -6.87846,0.26327 -12.75406,5.28219 -19.18505,8.20963 -6.51096,4.14716 -16.72998,0.81192 -24.05783,-1.4332 -10.39876,-1.70076 -20.10858,1.29178 -30.00057,-2.15758 -9.71668,0.14802 -19.64737,-1.57264 -28.53242,1.74898 -6.3666,-4.05134 -12.48348,-10.84217 -20.88825,-8.95535 -7.42059,-2.6366 -21.1854,-1.32295 -22.78538,-10.88418 -1.0472,-6.13489 4.1138,-8.06973 8.24466,-8.09771 5.01715,-4.59778 16.34737,0.7947 19.69134,-6.19425 3.73679,-7.69899 15.20691,3.64309 19.33263,-6.35572 4.94226,0.73675 6.71921,-1.6932 11.43867,-2.28688 z"
       id="path4372-8"
       inkscape:connector-curvature="0"
       inkscape:export-filename="/home/uxhi/INSA/git/filrouge-tmb/jeu/final/fond.png"
       inkscape:export-xdpi="191.41737"
       inkscape:export-ydpi="191.41737" />
    <path
       style="fill:#ffffff;fill-opacity:1;stroke:none"
       d="m 1121.3109,71.167495 c -11.3032,-0.60863 2.1216,-3.80674 -1.8536,-0.67932 -11.0697,-1.4785 -21.6147,-8.28413 -32.6055,-8.10358 -12.325,-3.3484 -24.8208,6.10449 -36.0313,-0.86876 -12.8531,-10.04703 -28.7734,-4.37073 -41.8964,2.84854 -18.70684,11.98692 -39.37361,8.41322 -59.18237,8.99153 -12.40151,-2.34835 -19.94933,17.96617 -32.75085,15.34594 -11.10193,0.87219 -21.40575,13.784275 -32.96873,12.835025 -12.15849,2.9421 -23.49593,12.28162 -36.23164,9.31234 -9.24966,-3.10246 -22.06301,17.38922 -6.34467,17.2967 12.41822,1.4483 25.73676,-4.10979 36.91793,5.37046 12.30753,6.89852 23.31049,8.31575 35.28833,14.56561 12.20374,-6.23878 18.0847,24.05389 32.10133,17.75041 12.13475,-1.91139 24.2371,-4.74997 36.40073,-4.7482 11.03481,0.65023 20.46074,13.04603 30.77774,20.27627 10.4452,10.24271 26.8392,2.00529 38.5949,-3.53974 16.6823,-4.20056 32.2594,3.19045 48.1286,-5.32882 15.5881,0.36558 31.5195,-3.88413 45.7734,4.31965 10.2136,-10.00606 20.0266,-26.77814 33.5101,-22.11805 11.9045,-6.51191 33.9868,-3.26744 36.5535,-26.8819 1.68,-15.15204 -6.5995,-19.93074 -13.2265,-19.99984 -8.0488,-11.355655 -26.2253,1.96276 -31.59,-15.298645 -5.9947,-19.01507 -24.3957,8.997755 -31.0144,-15.69745 -7.9287,1.81964 -10.7794,-4.18189 -18.3506,-5.64817 z"
       id="path4372-8-7"
       inkscape:connector-curvature="0" />
    <path
       style="fill:#ffffff;fill-opacity:1;stroke:none"
       d="m 974.05206,246.87333 c -10.07994,-0.19814 1.892,-1.23925 -1.65296,-0.22115 -9.87173,-0.48131 -19.27556,-2.69682 -29.07689,-2.63804 -10.9911,-1.09004 -22.13456,1.98726 -32.13178,-0.28282 -11.46219,-3.27071 -25.65945,-1.42285 -37.36224,0.92732 -16.68236,3.90223 -35.11252,2.73884 -52.77751,2.9271 -11.05938,-0.76448 -17.79036,5.84872 -29.20645,4.99573 -9.90044,0.28394 -19.0892,4.48735 -29.40082,4.17833 -10.84268,0.95777 -20.95312,3.99816 -32.31056,3.03154 -8.24854,-1.00998 -19.67525,5.6609 -5.658,5.63078 11.07436,0.47148 22.95143,-1.33791 32.92262,1.7483 10.97553,2.24575 20.78767,2.70711 31.46937,4.7417 10.88292,-2.03098 16.12746,7.83052 28.62717,5.77848 10.82148,-0.62224 21.61409,-1.54631 32.46133,-1.54573 9.84059,0.21167 18.24645,4.24701 27.44687,6.60074 9.31483,3.33442 23.93455,0.65281 34.41805,-1.15233 14.87687,-1.36745 28.76811,1.03863 42.91997,-1.73474 13.90106,0.11901 28.10828,-1.26445 40.81957,1.40622 9.1083,-3.25738 17.8594,-8.71737 29.8835,-7.20032 10.6162,-2.1199 30.3087,-1.06369 32.5977,-8.75116 1.4981,-4.9326 -5.8854,-6.48826 -11.7952,-6.51075 -7.1777,-3.69673 -23.3871,0.63895 -28.1711,-4.98033 -5.346,-6.19018 -21.75563,2.92913 -27.65804,-5.11016 -7.07059,0.59236 -9.61276,-1.36138 -16.3646,-1.83871 z"
       id="path4372-8-3"
       inkscape:connector-curvature="0"
       inkscape:export-filename="/home/uxhi/INSA/git/filrouge-tmb/jeu/final/fond.png"
       inkscape:export-xdpi="191.41737"
       inkscape:export-ydpi="191.41737" />
    <path
       style="fill:#ffffff;fill-opacity:1;stroke:none"
       d="m -251.51173,136.62242 c 11.82583,-5.55288 15.57385,11.2309 24.30991,17.6945 11.37107,3.72302 23.47477,4.39586 35.28287,5.07518 11.90455,-0.74542 21.65804,9.25671 32.40845,13.19479 10.89912,6.30952 23.97084,1.13249 33.91036,11.53902 5.34253,8.12543 3.17093,18.04302 -4.82967,13.14025 -11.88975,-1.67796 -25.53399,-5.70769 -35.62745,6.47843 -7.96833,10.4501 -22.4338,7.8743 -32.69015,6.56521 -11.33368,4.47213 -21.66566,14.45295 -33.90922,11.56659 -12.83033,-0.88446 -26.17265,-4.40156 -38.36931,4.65048 -10.71662,1.63124 -20.11933,-5.53755 -30.59957,-5.80669 -11.48836,-4.82403 -23.20236,-7.31676 -35.34071,-7.97139 -11.3171,-0.21335 -23.06219,0.4671 -34.62721,0.81858 -9.41002,0.0323 -18.89795,-3.36252 -27.48005,-8.23298 -14.71455,0.5556 -17.75863,-26.16756 -32.4249,-24.26051 -11.46883,-8.54699 8.86759,-16.09727 14.61469,-13.93127 10.35348,-7.90848 22.31617,-9.41161 33.83508,-9.92987 11.83081,4.32886 24.09112,3.11088 35.10431,-4.86836 8.74097,-17.78332 24.87114,-11.77367 38.20023,-12.09045 9.04164,-4.46029 18.62766,-13.09934 28.70035,-10.69093 9.76497,7.22544 22.17562,-7.52367 29.53199,7.05942 z"
       id="path4368-3"
       inkscape:connector-curvature="0"
       inkscape:export-filename="/home/uxhi/INSA/git/filrouge-tmb/jeu/final/fond.png"
       inkscape:export-xdpi="191.41737"
       inkscape:export-ydpi="191.41737" />
  </g>
</svg>
