<?xml version="1.0" encoding="UTF-8" standalone="no"?>
<!-- Created with Inkscape (http://www.inkscape.org/) -->

<svg
   xmlns:dc="http://purl.org/dc/elements/1.1/"
   xmlns:cc="http://creativecommons.org/ns#"
   xmlns:rdf="http://www.w3.org/1999/02/22-rdf-syntax-ns#"
   xmlns:svg="http://www.w3.org/2000/svg"
   xmlns="http://www.w3.org/2000/svg"
   xmlns:sodipodi="http://sodipodi.sourceforge.net/DTD/sodipodi-0.dtd"
   xmlns:inkscape="http://www.inkscape.org/namespaces/inkscape"
   width="210mm"
   height="297mm"
   id="svg2"
   version="1.1"
   inkscape:version="0.48.1 r9760"
   sodipodi:docname="Nouveau document 1">
  <defs
     id="defs4" />
  <sodipodi:namedview
     id="base"
     pagecolor="#ffffff"
     bordercolor="#666666"
     borderopacity="1.0"
     inkscape:pageopacity="0.0"
     inkscape:pageshadow="2"
     inkscape:zoom="0.24748737"
     inkscape:cx="52.26535"
     inkscape:cy="847.35054"
     inkscape:document-units="px"
     inkscape:current-layer="layer1"
     showgrid="false"
     inkscape:window-width="974"
     inkscape:window-height="576"
     inkscape:window-x="50"
     inkscape:window-y="24"
     inkscape:window-maximized="1" />
  <metadata
     id="metadata7">
    <rdf:RDF>
      <cc:Work
         rdf:about="">
        <dc:format>image/svg+xml</dc:format>
        <dc:type
           rdf:resource="http://purl.org/dc/dcmitype/StillImage" />
        <dc:title></dc:title>
      </cc:Work>
    </rdf:RDF>
  </metadata>
  <g
     inkscape:label="Calque 1"
     inkscape:groupmode="layer"
     id="layer1">
    <g
       id="g3803"
       inkscape:export-filename="/home/uxhi/INSA/git/filrouge-tmb/jeu/final/terrain.png"
       inkscape:export-xdpi="72.001022"
       inkscape:export-ydpi="72.001022">
      <path
         inkscape:connector-curvature="0"
         id="path2985-9"
         d="m -875.71421,539.8073 c 0,0 71.4286,-22.85714 91.42856,-71.42857 20,-48.57143 22.8571,-54.28572 74.2857,-51.42857 51.42855,2.85714 91.42855,354.2857 199.99998,282.85713 108.57143,-71.42857 88.57143,-134.28571 168.57143,-154.2857 80,-20 125.71429,-80 208.57143,-11.42858 82.857136,68.57142 91.428566,302.85714 251.42856,265.71428 159.99999,-37.14286 105.71429,-160 174.28569,-194.28571 68.57151,-34.28572 60.00001,-162.85714 128.57151,-137.14285 68.5714,25.71428 22.8571,271.42856 125.7142,302.85713 102.8572,31.42857 28.5715,-45.71428 102.8572,-77.14286 74.2857,-31.42857 54.2857,-179.99999 122.8571,-137.14285 68.5714,42.85714 148.5714,194.28571 148.5714,194.28571 l 0,211.42859 -1788.57136,0 z"
         style="color:#000000;fill:#c5b08d;fill-opacity:1;stroke:none;stroke-width:4;marker:none;visibility:visible;display:inline;overflow:visible;enable-background:accumulate" />
      <path
         inkscape:connector-curvature="0"
         id="path3757"
         d="m -726.56697,415.1741 c -35.27344,-0.15625 -39.65625,9.53125 -57.15625,52.03125 -20,48.57143 -91.40625,71.4375 -91.40625,71.4375 l 0.78125,38.84375 22.0625,15.4375 5.71875,-34.28125 25.71875,28.5625 22.84375,-48.5625 14.28125,34.28125 14.28125,-65.71875 14.3125,51.4375 c 0,0 5.70982,-105.72322 14.28125,-91.4375 8.57143,14.28571 25.71875,54.3125 25.71875,54.3125 l 2.84375,-60 17.15625,48.5625 17.125,-14.28125 -5.71875,60 20,-14.28125 -8.5625,74.28125 22.84375,-31.4375 0,77.15625 11.4375,-17.15625 5.71875,40 25.71875,-20 c 0,0 20.00893,54.29464 11.4375,71.4375 -8.57143,17.14285 22.84375,-14.28125 22.84375,-14.28125 l 14.28125,28.5625 11.4375,-28.5625 22.84375,48.5625 34.28125,-62.875 14.3125,31.4375 14.28125,-45.71875 11.40625,22.875 40.00001,-91.4375 5.71875,62.84375 22.875,-62.84375 31.40625,60 11.4375,-97.15625 17.15625,51.4375 31.40625,-62.84375 17.15625,42.84375 48.56249,-85.71875 25.71875,97.15625 20,-65.71875 28.5625,85.71875 17.15625,-60 2.84375,48.5625 25.71875,-40 17.156253,85.71875 11.4375,-14.28125 34.28125,105.71875 11.40625,-34.28125 c 0,0 40.00446,39.99107 45.71875,68.5625 5.71428,28.57143 17.15625,-2.875 17.15625,-2.875 l 31.4375,40 11.40625,-31.40625 22.874997,34.28125 14.28125,-31.4375 34.28125,40 14.28125,-57.125 17.15625,31.40625 14.28125,-37.125 11.4375,45.71875 28.5625,-77.15625 25.71875,28.5625 c 0,0 0,-85.70089 20,-122.84375 20,-37.14286 40,-62.875 40,-62.875 l 2.84375,65.71875 28.5625,-54.28125 c 0,0 2.85715,-42.8616 20,-65.71875 17.14286,-22.85714 34.3125,-57.125 34.3125,-57.125 l 14.28125,40 22.84375,-11.4375 c 0,0 -2.84822,62.86607 11.4375,131.4375 14.28571,68.57143 5.71875,102.84375 5.71875,102.84375 l 22.84375,-14.28125 8.5625,54.28125 17.15625,-40 25.71875,57.15625 11.4375,-31.4375 c 0,0 28.55804,11.42411 22.84375,34.28125 -5.71429,22.85714 22.84375,-20 22.84375,-20 l 22.875,42.875 8.5625,-42.875 25.71875,28.5625 c 0,0 -22.85268,-37.13393 -14.28125,-68.5625 8.57142,-31.42857 28.5625,-5.71875 28.5625,-5.71875 l 14.28121,-48.5625 20,48.5625 c 0,0 -17.1383,-48.55803 5.7187,-82.84375 22.8572,-34.28571 37.1563,-80 37.1563,-80 l 8.5625,105.71875 20,-94.28125 5.7188,51.40625 14.2812,-34.28125 c 0,0 0.013,51.44196 37.1562,77.15625 37.1429,25.71428 28.5626,100 28.5626,100 l 22.8437,-60 5.7187,54.28125 28.5626,-34.28125 11.4374,33.125 0,-38.84375 c 0,0 -79.991,-151.42411 -148.5624,-194.28125 -68.5714,-42.85715 -48.5893,105.69643 -122.87501,137.125 -74.28571,31.42858 0.0134,108.58482 -102.84375,77.15625 C 444.85714,738.65178 490.56696,492.91963 421.99553,467.20535 353.42411,441.49106 362.00445,570.07588 293.43303,604.3616 224.8616,638.64731 279.15178,761.49999 119.15178,798.64285 -40.848217,835.78571 -49.428577,601.49553 -132.28572,532.9241 c -82.85714,-68.57142 -128.56249,-8.5625 -208.56249,11.4375 -80,20 -60.02232,82.85268 -168.59376,154.28125 -108.57143,71.42857 -148.57143,-279.98661 -200,-282.84375 -6.42857,-0.35714 -12.08594,-0.60268 -17.125,-0.625 z"
         style="color:#000000;fill:#97c58d;fill-opacity:1;stroke:none;stroke-width:4;marker:none;visibility:visible;display:inline;overflow:visible;enable-background:accumulate" />
    </g>
    <path
       style="color:#000000;fill:#ffffff;stroke:none;stroke-width:4;stroke-linecap:butt;stroke-linejoin:miter;stroke-miterlimit:4;stroke-opacity:1;stroke-dasharray:none;stroke-dashoffset:0;marker:none;visibility:visible;display:inline;overflow:visible;enable-background:accumulate;fill-opacity:0.07906977"
       d="m -941.46217,700.8291 c 0,0 32.32488,-20.20305 133.34013,-20.20305 101.01526,0 121.21831,153.54318 230.31478,157.58379 109.09648,4.04061 173.74624,-117.17769 299.00516,-105.05586 125.25891,12.12183 105.05586,109.09647 206.071117,173.74624 101.015254,64.64976 214.152343,101.01528 335.370643,32.32488 121.21831,-68.69038 202.03051,-72.73099 254.55844,-44.44671 52.52793,28.28427 181.82746,12.12183 258.59905,-24.24367 76.7716,-36.36549 157.5838,4.04061 157.5838,4.04061 l -4.04061,113.13709 -1022.274374,48.48728 c 0,0 -80.812206,-36.36545 -129.299526,-88.89338 -48.48732,-52.52793 -84.85281,-72.73099 -113.13708,-56.56854 -28.28428,16.16244 -153.54319,113.13712 -258.59906,109.09647 -105.05586,-4.04061 -141.42135,-88.89342 -189.90867,-117.17769 -48.48733,-28.28428 -157.5838,-24.24367 -157.5838,-24.24367 z"
       id="path3791"
       inkscape:connector-curvature="0" />
  </g>
</svg>
