<?xml version="1.0" encoding="UTF-8" standalone="no"?>
<!-- Created with Inkscape (http://www.inkscape.org/) -->

<svg
   xmlns:dc="http://purl.org/dc/elements/1.1/"
   xmlns:cc="http://creativecommons.org/ns#"
   xmlns:rdf="http://www.w3.org/1999/02/22-rdf-syntax-ns#"
   xmlns:svg="http://www.w3.org/2000/svg"
   xmlns="http://www.w3.org/2000/svg"
   xmlns:sodipodi="http://sodipodi.sourceforge.net/DTD/sodipodi-0.dtd"
   xmlns:inkscape="http://www.inkscape.org/namespaces/inkscape"
   width="64px"
   height="64px"
   id="svg4456"
   version="1.1"
   inkscape:version="0.48.1 r9760"
   sodipodi:docname="Nouveau document 11">
  <defs
     id="defs4458" />
  <sodipodi:namedview
     id="base"
     pagecolor="#ffffff"
     bordercolor="#666666"
     borderopacity="1.0"
     inkscape:pageopacity="0.0"
     inkscape:pageshadow="2"
     inkscape:zoom="5.5"
     inkscape:cx="26.532979"
     inkscape:cy="24.650505"
     inkscape:current-layer="layer1"
     showgrid="true"
     inkscape:document-units="px"
     inkscape:grid-bbox="true"
     inkscape:window-width="974"
     inkscape:window-height="576"
     inkscape:window-x="50"
     inkscape:window-y="24"
     inkscape:window-maximized="1" />
  <metadata
     id="metadata4461">
    <rdf:RDF>
      <cc:Work
         rdf:about="">
        <dc:format>image/svg+xml</dc:format>
        <dc:type
           rdf:resource="http://purl.org/dc/dcmitype/StillImage" />
        <dc:title></dc:title>
      </cc:Work>
    </rdf:RDF>
  </metadata>
  <g
     id="layer1"
     inkscape:label="Layer 1"
     inkscape:groupmode="layer">
    <path
       style="fill:#9c9387;fill-opacity:1;stroke:none"
       d="M 28.27084,11.902659 C 27.118599,9.6397259 26.396572,6.5797736 28.085034,4.4011577 c 2.050312,-1.8926848 5.07935,-1.4846022 7.655468,-1.4525209 2.260966,0.062429 4.39636,1.2891985 5.39883,3.3546057 1.531414,2.2653796 0.751382,5.5836315 -1.440331,7.1196795 -0.922321,1.412076 0.220531,3.479005 0.616376,5.131319 0.774239,2.50691 1.11448,4.12916 1.549605,6.242818 0.451275,3.473441 0.888135,4.127415 0.980219,6.222792 0.841343,3.381626 1.983132,5.391686 -1.489392,5.525276 -2.76891,0.420983 -2.714078,-2.113408 -2.386042,-4.098669 -0.383377,-2.683254 -0.116045,-5.477343 -1.090442,-8.07671 -0.612931,-1.669901 -1.753949,-3.722169 -2.288066,-4.050148 0.0092,2.858421 -0.670988,5.670626 -0.789855,8.517103 -0.64651,3.587584 0.348306,7.978108 0.625379,11.345638 0.203746,5.826126 -1.10009,8.463393 -0.8704,13.016935 -0.18434,4.100186 1.051429,4.384057 4.674117,5.162775 0.660968,2.823892 -2.128569,2.50991 -4.170098,2.101995 -2.960408,0.04899 -4.939251,0.914049 -6.01181,-0.864358 -0.179139,-2.683252 -0.239361,-5.399502 0.311153,-8.038241 0.252114,-2.676354 0.270837,-4.809271 0.381831,-8.040803 -0.112902,-1.377563 -0.0365,-4.69699 -0.619702,-4.805187 -0.740129,2.245364 -1.320799,4.568905 -1.076057,6.951099 -0.817811,5.225192 -1.182944,9.411176 0.222046,9.692727 0.487488,1.915286 3.777141,4.997006 -0.274326,5.6114 -2.254212,-0.464653 -3.673034,-0.17283 -6.505773,-0.475252 -1.094711,-2.675784 -0.08962,-5.598605 0.266618,-9.744758 0.101974,-5.930376 -0.855453,-11.908784 0.129926,-17.796019 1.280284,-2.980956 1.077166,-5.988536 1.419309,-12.300042 0.58127,-2.540036 0.691233,-5.822588 3.310103,-7.096582 0.407674,-0.677252 1.044158,-1.174505 1.65712,-1.655371 z"
       id="path4466"
       inkscape:connector-curvature="0"
       sodipodi:nodetypes="cccccccccccccccccccccccccccccc"
       inkscape:export-filename="/home/uxhi/path4978-2.png"
       inkscape:export-xdpi="395.95795"
       inkscape:export-ydpi="395.95795" />
    <path
       style="color:#000000;fill:#f6091d;fill-opacity:1;stroke:none;stroke-width:4;marker:none;visibility:visible;display:inline;overflow:visible;enable-background:accumulate"
       d="m 32.545455,7.4545454 4.181818,0 c 0,0 -0.545455,2.0000005 -1.818182,2.0000005 -1.272727,0 -2.363636,-2.0000005 -2.363636,-2.0000005 z"
       id="path4978"
       inkscape:connector-curvature="0"
       inkscape:export-xdpi="395.95795"
       inkscape:export-ydpi="395.95795" />
    <path
       style="color:#000000;fill:#f6091d;fill-opacity:1;stroke:none;stroke-width:4;marker:none;visibility:visible;display:inline;overflow:visible;enable-background:accumulate"
       d="m 38.272728,7.5454543 4.181817,0 c 0,0 -0.545455,2.0000006 -1.818181,2.0000006 -1.272727,0 -2.363636,-2.0000006 -2.363636,-2.0000006 z"
       id="path4978-2"
       inkscape:connector-curvature="0"
       inkscape:export-xdpi="395.95795"
       inkscape:export-ydpi="395.95795" />
  </g>
</svg>
